<?xml version="1.0" encoding="utf-8"?>
<!-- Generator: Adobe Illustrator 24.2.0, SVG Export Plug-In . SVG Version: 6.00 Build 0)  -->
<svg version="1.1" id="Layer_1" xmlns="http://www.w3.org/2000/svg" xmlns:xlink="http://www.w3.org/1999/xlink" x="0px" y="0px"
	 viewBox="0 0 104.7 104.6" style="enable-background:new 0 0 104.7 104.6;" xml:space="preserve">
<style type="text/css">
	.st0{fill:#F0701A;}
</style>
<path d="M19.1,29.3h6.5v46.4h-6.5V29.3z M22.9,69.7h12.6c3.3,0,5.7-0.6,7.2-1.9c1.5-1.3,2.4-3.3,2.3-5.3v-0.1c0-1.4-0.2-2.8-0.8-4.1
	c-0.5-1.1-1.4-2-2.6-2.6c-1.4-0.7-3-1-4.5-0.9H22.9V49h14.2c2,0.1,3.9-0.5,5.5-1.7c1.3-1.3,2-3.1,1.8-5c0.2-1.9-0.6-3.9-2-5.2
	c-1.4-1.2-3.5-1.8-6.1-1.8H22.9v-6h14.5c2.6-0.1,5.2,0.4,7.5,1.5c1.9,0.9,3.5,2.4,4.5,4.3c1,2.1,1.6,4.4,1.5,6.7
	c0,1.5-0.3,3.1-0.9,4.5c-0.6,1.4-1.6,2.7-2.8,3.6c-1.4,1-3,1.7-4.7,2c1.8,0.2,3.4,0.9,4.8,2c1.4,1,2.4,2.4,3.1,3.9
	c0.7,1.6,1.1,3.3,1.1,5.1v0.1c0,2.3-0.5,4.6-1.7,6.6c-1.1,1.9-2.8,3.4-4.8,4.4c-2.2,1.1-4.7,1.6-7.2,1.6h-15L22.9,69.7z"/>
<path d="M85.8,75.7h-6.5V29.3h6.5V75.7z M82,75.7H67c-2.5,0-5-0.5-7.2-1.6c-2-1-3.6-2.5-4.8-4.4c-1.1-2-1.7-4.3-1.7-6.6V63
	c0-1.8,0.4-3.5,1.1-5.1c0.7-1.5,1.8-2.9,3.1-3.9c1.4-1.1,3.1-1.8,4.8-2c-1.7-0.3-3.3-1-4.7-2c-1.2-0.9-2.2-2.2-2.8-3.6
	c-0.6-1.4-0.9-2.9-0.9-4.5c-0.1-2.4,0.4-4.7,1.5-6.8c1-1.9,2.6-3.4,4.5-4.3c2.4-1.1,4.9-1.6,7.5-1.5H82v6H68.7
	c-2.7,0-4.8,0.6-6.1,1.7c-1.4,1.3-2.2,3.3-2,5.2c-0.1,1.9,0.5,3.7,1.8,5c1.5,1.2,3.5,1.8,5.4,1.7H82v5.9H67.8
	c-1.6-0.1-3.1,0.3-4.5,0.9c-1.1,0.6-2,1.5-2.6,2.6c-0.6,1.3-0.9,2.7-0.8,4.1v0.1c-0.1,2,0.7,4,2.3,5.3c1.5,1.3,3.9,1.9,7.2,1.9H82
	L82,75.7z"/>
<path class="st0" d="M52.4,5.3c26.1,0,47.2,21.1,47.3,47.2S78.6,99.7,52.5,99.7S5.3,78.6,5.3,52.5c0,0,0,0,0,0
	C5.3,26.4,26.4,5.3,52.4,5.3 M52.4,0.3C23.6,0.3,0.2,23.7,0.2,52.5s23.4,52.2,52.2,52.2s52.2-23.4,52.2-52.2S81.3,0.3,52.4,0.3
	C52.4,0.3,52.4,0.3,52.4,0.3z"/>
</svg>
