<?xml version="1.0" encoding="utf-8"?>
<!-- Generator: Adobe Illustrator 24.2.1, SVG Export Plug-In . SVG Version: 6.00 Build 0)  -->
<svg version="1.1" id="Layer_1" xmlns="http://www.w3.org/2000/svg" xmlns:xlink="http://www.w3.org/1999/xlink" x="0px" y="0px"
	 viewBox="0 0 826 111" style="enable-background:new 0 0 826 111;" xml:space="preserve">
<style type="text/css">
	.st0{fill:none;stroke:#F27321;stroke-width:5;stroke-miterlimit:10;}
	.st1{fill:#F27321;}
	.st2{fill:#FFFFFF;}
</style>
<path class="st0" d="M102.5,56.4c0,25.8-20.9,46.8-46.8,46.8C29.9,103.2,9,82.2,9,56.4S29.9,9.6,55.7,9.6
	C81.6,9.6,102.5,30.6,102.5,56.4z"/>
<g>
	<path d="M51.3,56.4c0-0.4,0.2-1,0.6-1.5c1.8-2.1,2.8-4.7,2.8-7.5c0-6.9-6.2-12.5-13.8-12.5H26.2c-0.6,0-1.1,0.2-1.5,0.6
		c-0.4,0.4-0.6,0.9-0.6,1.5v38.7c0,0.6,0.2,1.1,0.6,1.5c0.4,0.4,0.9,0.6,1.5,0.6h14.7c7.6,0,13.8-5.6,13.8-12.5c0-2.7-1-5.4-2.8-7.5
		C51.5,57.3,51.3,56.8,51.3,56.4z M45.8,58.3c2.9,1.5,4.7,4.2,4.7,7.1c0,4.5-4.3,8.2-9.6,8.2H28.4V39.2h12.5c5.3,0,9.6,3.7,9.6,8.2
		c0,2.9-1.8,5.6-4.7,7.1L42,56.4L45.8,58.3z"/>
	<path d="M59.6,57.9c-1.8,2.1-2.8,4.7-2.8,7.5c0,6.9,6.2,12.5,13.8,12.5h14.7c0.6,0,1.1-0.2,1.5-0.6c0.4-0.4,0.6-0.9,0.6-1.5V37.1
		c0-0.6-0.2-1.1-0.6-1.5c-0.4-0.4-0.9-0.6-1.5-0.6H70.6c-7.6,0-13.8,5.6-13.8,12.5c0,2.7,1,5.4,2.8,7.5c0.4,0.5,0.6,1.1,0.6,1.5
		C60.2,56.8,60,57.3,59.6,57.9z M69.4,56.4l-3.7-1.9C62.8,53,61,50.3,61,47.4c0-4.5,4.3-8.2,9.6-8.2h12.5v34.4H70.6
		c-5.3,0-9.6-3.7-9.6-8.2c0-2.9,1.8-5.6,4.7-7.1L69.4,56.4z"/>
</g>
<g>
	<path d="M230.6,27.3c-9.3,0-17.4,3.3-24,9.9c-6.6,6.6-9.9,14.7-9.9,24c0,9.3,3.3,17.4,9.9,24c6.6,6.6,14.7,9.9,24,9.9
		c9.3,0,17.4-3.3,24-9.9c6.6-6.6,9.9-14.7,9.9-24c0-9.3-3.3-17.4-9.9-24C247.9,30.6,239.9,27.3,230.6,27.3z M230.6,87.1
		c-7.1,0-13.3-2.6-18.4-7.6c-5-5-7.6-11.2-7.6-18.4c0-7.1,2.6-13.3,7.6-18.4c5-5,11.2-7.6,18.4-7.6c7.1,0,13.3,2.6,18.4,7.6
		c5,5,7.6,11.2,7.6,18.4c0,7.1-2.6,13.3-7.6,18.4C243.9,84.6,237.7,87.1,230.6,87.1z"/>
	<path d="M303.7,27.3c-9.3,0-17.4,3.3-24,9.9c-6.6,6.6-9.9,14.7-9.9,24c0,9.3,3.3,17.4,9.9,24c6.6,6.6,14.7,9.9,24,9.9
		c9.3,0,17.4-3.3,24-9.9c6.6-6.6,9.9-14.7,9.9-24c0-9.3-3.3-17.4-9.9-24C321.1,30.6,313,27.3,303.7,27.3z M303.7,87.1
		c-7.1,0-13.3-2.6-18.4-7.6c-5-5-7.6-11.2-7.6-18.4c0-7.1,2.6-13.3,7.6-18.4c5-5,11.2-7.6,18.4-7.6c7.1,0,13.3,2.6,18.4,7.6
		c5,5,7.6,11.2,7.6,18.4c0,7.1-2.6,13.3-7.6,18.4C317,84.6,310.8,87.1,303.7,87.1z"/>
	<path d="M427,28.5c-0.8-0.8-1.7-1.2-2.8-1.2c-1.4,0-2.4,0.5-3.2,1.7L404.3,54l-16.7-25.1c-0.8-1.1-1.9-1.6-3.2-1.6c0,0,0,0,0,0
		c0,0,0,0,0,0h-45.7c-1.1,0-2,0.4-2.8,1.2c-0.8,0.8-1.2,1.7-1.2,2.8c0,1.1,0.4,2,1.2,2.8c0.8,0.8,1.7,1.2,2.8,1.2h17.6v55.9
		c0,1.1,0.4,2,1.2,2.8c0.8,0.8,1.7,1.2,2.8,1.2c1.1,0,2-0.4,2.8-1.2c0.8-0.8,1.2-1.7,1.2-2.8V35.2h18l18.1,27.1v28.7
		c0,1.1,0.4,2,1.2,2.8c0.8,0.8,1.7,1.2,2.8,1.2c1.1,0,2-0.4,2.8-1.2c0.8-0.8,1.2-1.7,1.2-2.8V62.4l19.3-28.9
		c0.4-0.7,0.6-1.4,0.6-2.2C428.2,30.2,427.8,29.2,427,28.5z"/>
</g>
<g>
	<path d="M572.5,27.3c-1.1,0-2,0.4-2.8,1.2c-0.8,0.8-1.2,1.7-1.2,2.8v39.9c0,4.4-1.6,8.2-4.7,11.3c-3.1,3.1-6.9,4.7-11.3,4.7
		c-4.4,0-8.2-1.6-11.3-4.7c-3.1-3.1-4.7-6.9-4.7-11.3V31.3c0-1.1-0.4-2-1.2-2.8c-0.8-0.8-1.7-1.2-2.8-1.2c-1.1,0-2,0.4-2.8,1.2
		c-0.8,0.8-1.2,1.7-1.2,2.8v39.9c0,6.6,2.4,12.3,7,16.9c4.6,4.6,10.3,7,16.9,7c6.6,0,12.3-2.4,16.9-7c4.6-4.6,7-10.3,7-16.9V31.3
		c0-1.1-0.4-2-1.2-2.8C574.5,27.7,573.6,27.3,572.5,27.3z"/>
	<path d="M589.1,27.3c-1.1,0-2,0.4-2.8,1.2c-0.8,0.8-1.2,1.7-1.2,2.8v59.9c0,1.1,0.4,2,1.2,2.8c0.8,0.8,1.7,1.2,2.8,1.2
		c1.1,0,2-0.4,2.8-1.2c0.8-0.8,1.2-1.7,1.2-2.8V31.3c0-1.1-0.4-2-1.2-2.8C591.1,27.7,590.2,27.3,589.1,27.3z"/>
	<path d="M642.3,87.1h-32.6V31.3c0-1.1-0.4-2-1.2-2.8c-0.8-0.8-1.7-1.2-2.8-1.2c-1.1,0-2,0.4-2.8,1.2c-0.8,0.8-1.2,1.7-1.2,2.8v59.9
		c0,1.1,0.4,2,1.2,2.8c0.8,0.8,1.7,1.2,2.8,1.2h36.6c1.1,0,2-0.4,2.8-1.2c0.8-0.8,1.2-1.7,1.2-2.8c0-1.1-0.4-2-1.2-2.8
		C644.3,87.5,643.4,87.1,642.3,87.1z"/>
	<path d="M668.9,27.3h-13.3c-1.1,0-2,0.4-2.8,1.2c-0.8,0.8-1.2,1.7-1.2,2.8v59.9c0,1.1,0.4,2,1.2,2.8c0.8,0.8,1.7,1.2,2.8,1.2h13.3
		c9.3,0,17.4-3.3,24-9.9c6.6-6.6,9.9-14.7,9.9-24c0-9.3-3.3-17.4-9.9-24C686.3,30.6,678.2,27.3,668.9,27.3z M668.9,87.1h-9.3V35.2
		h9.3c7.1,0,13.3,2.6,18.4,7.6c5,5,7.6,11.2,7.6,18.4c0,7.1-2.6,13.3-7.6,18.4C682.2,84.6,676,87.1,668.9,87.1z"/>
	<path d="M752,35.2c1.1,0,2-0.4,2.8-1.2c0.8-0.8,1.2-1.7,1.2-2.8c0-1.1-0.4-2-1.2-2.8c-0.8-0.8-1.7-1.2-2.8-1.2h-39.9
		c-1.1,0-2,0.4-2.8,1.2c-0.8,0.8-1.2,1.7-1.2,2.8v59.9c0,1.1,0.4,2,1.2,2.8c0.8,0.8,1.7,1.2,2.8,1.2H752c1.1,0,2-0.4,2.8-1.2
		c0.8-0.8,1.2-1.7,1.2-2.8c0-1.1-0.4-2-1.2-2.8c-0.8-0.8-1.7-1.2-2.8-1.2h-35.9v-22h26c1.1,0,2-0.4,2.8-1.2c0.8-0.8,1.2-1.7,1.2-2.8
		c0-1.1-0.4-2-1.2-2.8c-0.8-0.8-1.7-1.2-2.8-1.2h-26v-22H752z"/>
	<path d="M805.3,88.9l-14.1-22.6c1.9-1,3.7-2.3,5.4-3.9c4-4,6-8.9,6-14.5c0-5.7-2-10.6-6-14.6c-4-4-8.9-6-14.6-6h-16.6
		c-1.1,0-2,0.4-2.8,1.2c-0.8,0.8-1.2,1.7-1.2,2.8v59.9c0,1.1,0.4,2,1.2,2.8c0.8,0.8,1.7,1.2,2.8,1.2c1.1,0,2-0.4,2.8-1.2
		c0.8-0.8,1.2-1.7,1.2-2.8V35.2H782c3.5,0,6.5,1.2,9,3.7c2.5,2.5,3.7,5.5,3.7,9c0,3.5-1.2,6.5-3.7,9c-2.2,2.2-7,3.4-7.9,4
		c-0.9,0.6-1.5,1.4-1.7,2.5c-0.2,1.1-0.1,2.1,0.5,3l15.2,24.4c0.1,0.2,0.2,0.3,0.3,0.4l1.2,1.9c0.9,1.3,2,2,3.4,2
		c1.1,0,2-0.4,2.8-1.2c0.8-0.8,1.2-1.7,1.2-2.8C805.9,90.3,805.7,89.6,805.3,88.9z"/>
</g>
<path class="st1" d="M513.7,56.4c0-0.8,0.4-2,1.3-3.1c3.7-4.4,5.7-9.8,5.7-15.5c0-14.2-12.8-25.8-28.6-25.8h-30.3
	c-1.2,0-2.2,0.4-3.1,1.3c-0.8,0.8-1.3,1.9-1.3,3.1v80c0,1.2,0.4,2.2,1.3,3.1c0.8,0.9,1.9,1.3,3.1,1.3h30.3
	c15.8,0,28.6-11.6,28.6-25.8c0-5.7-2.1-11.1-5.7-15.5C514,58.4,513.7,57.2,513.7,56.4z M502.1,60.3c6,3.1,9.7,8.7,9.7,14.6
	c0,9.4-8.9,17-19.8,17h-25.9V20.8h25.9c10.9,0,19.8,7.6,19.8,17c0,6-3.7,11.6-9.7,14.6l-7.7,3.9L502.1,60.3z"/>
<path class="st1" d="M184.8,56.4c0-0.8,0.4-2,1.3-3.1c3.7-4.4,5.7-9.8,5.7-15.5c0-14.2-12.8-25.8-28.6-25.8H133
	c-1.2,0-2.2,0.4-3.1,1.3c-0.9,0.8-1.3,1.9-1.3,3.1v80c0,1.2,0.4,2.2,1.3,3.1c0.9,0.9,1.9,1.3,3.1,1.3h30.3
	c15.8,0,28.6-11.6,28.6-25.8c0-5.7-2.1-11.1-5.7-15.5C185.2,58.4,184.8,57.2,184.8,56.4z M173.3,60.3c6,3.1,9.7,8.7,9.7,14.6
	c0,9.4-8.9,17-19.8,17h-25.9V20.8h25.9c10.9,0,19.8,7.6,19.8,17c0,6-3.7,11.6-9.7,14.6l-7.7,3.9L173.3,60.3z"/>
<g>
	<path class="st2" d="M815.3,31.1c0,1.3-0.5,2.4-1.4,3.3c-0.9,0.9-2,1.4-3.3,1.4c-1.3,0-2.4-0.5-3.3-1.4c-0.9-0.9-1.4-2-1.4-3.3
		c0-1.3,0.5-2.4,1.4-3.3c0.9-0.9,2-1.4,3.3-1.4c1.3,0,2.4,0.5,3.3,1.4C814.9,28.7,815.3,29.8,815.3,31.1z M810.6,27.1
		c-1.1,0-2,0.4-2.8,1.2c-0.8,0.8-1.2,1.7-1.2,2.8c0,1.1,0.4,2,1.2,2.8c0.8,0.8,1.7,1.2,2.8,1.2c1.1,0,2-0.4,2.8-1.2
		c0.8-0.8,1.2-1.7,1.2-2.8c0-1.1-0.4-2-1.2-2.8C812.6,27.5,811.7,27.1,810.6,27.1z M809,28h1.6c0.5,0,1,0.2,1.3,0.5
		c0.4,0.4,0.5,0.8,0.5,1.3c0,0.5-0.2,1-0.6,1.3c-0.2,0.2-0.3,0.3-0.5,0.4l1.3,2.2c0,0,0.1,0.1,0.1,0.2c0,0.1,0,0.2-0.1,0.2
		c-0.1,0.1-0.1,0.1-0.2,0.1c-0.1,0-0.2-0.1-0.3-0.2l-1.5-2.3c0,0-0.1,0-0.1,0h-1.2v2.2c0,0.1,0,0.2-0.1,0.2
		c-0.1,0.1-0.1,0.1-0.2,0.1c-0.1,0-0.2,0-0.2-0.1c-0.1-0.1-0.1-0.1-0.1-0.2v-5.6c0-0.1,0-0.2,0.1-0.2C808.9,28,809,28,809,28z
		 M809.3,28.6v2.5h1.2c0.3,0,0.6-0.1,0.9-0.4c0.2-0.2,0.4-0.5,0.4-0.9c0-0.3-0.1-0.6-0.4-0.9c-0.2-0.2-0.5-0.4-0.9-0.4H809.3z"/>
</g>
</svg>
